{
  "accessors": [
    {
      "bufferView": 2,
      "componentType": 5126,
      "count": 424,
      "max": [
        0.367033988237381,
        0.5257880091667175,
        1.2970850467681885
      ],
      "min": [
        -0.5106719732284546,
        -0.5257880091667175,
        1.22822904586792
      ],
      "type": "VEC3"
    },
    {
      "bufferView": 2,
      "byteOffset": 5088,
      "componentType": 5126,
      "count": 424,
      "max": [
        0.9988617897033691,
        0.9987240433692932,
        0.9993174076080322
      ],
      "min": [
        -0.9988617897033691,
        -0.9987240433692932,
        -1.0
      ],
      "type": "VEC3"
    },
    {
      "bufferView": 1,
      "componentType": 5126,
      "count": 424,
      "max": [
        0.9659810066223145,
        1.0
      ],
      "min": [
        0.0,
        0.0
      ],
      "type": "VEC2"
    },
    {
      "bufferView": 0,
      "componentType": 5125,
      "count": 1932,
      "type": "SCALAR"
    },
    {
      "bufferView": 2,
      "byteOffset": 10176,
      "componentType": 5126,
      "count": 1920,
      "max": [
        0.4370479881763458,
        0.5913990139961243,
        0.514523983001709
      ],
      "min": [
        -0.5823869705200195,
        -0.5913990139961243,
        0.394228994846344
      ],
      "type": "VEC3"
    },
    {
      "bufferView": 2,
      "byteOffset": 33216,
      "componentType": 5126,
      "count": 1920,
      "max": [
        0.9514557719230652,
        1.0,
        1.0
      ],
      "min": [
        -0.9514169692993164,
        -1.0,
        -1.0
      ],
      "type": "VEC3"
    },
    {
      "bufferView": 1,
      "byteOffset": 3392,
      "componentType": 5126,
      "count": 1920,
      "max": [
        1.0028040409088135,
        1.0
      ],
      "min": [
        -0.002804999938234687,
        0.0685650035738945
      ],
      "type": "VEC2"
    },
    {
      "bufferView": 0,
      "byteOffset": 7728,
      "componentType": 5125,
      "count": 2832,
      "type": "SCALAR"
    },
    {
      "bufferView": 2,
      "byteOffset": 56256,
      "componentType": 5126,
      "count": 1900,
      "max": [
        0.6234639883041382,
        0.4890260100364685,
        2.432806968688965
      ],
      "min": [
        -0.7574830055236816,
        -0.5902979969978333,
        1.7602540254592896
      ],
      "type": "VEC3"
    },
    {
      "bufferView": 2,
      "byteOffset": 79056,
      "componentType": 5126,
      "count": 1900,
      "max": [
        1.0,
        1.0,
        1.0
      ],
      "min": [
        -0.9985083341598511,
        -1.0,
        -1.0
      ],
      "type": "VEC3"
    },
    {
      "bufferView": 1,
      "byteOffset": 18752,
      "componentType": 5126,
      "count": 1900,
      "max": [
        1.0,
        0.9901109933853149
      ],
      "min": [
        0.0,
        0.0
      ],
      "type": "VEC2"
    },
    {
      "bufferView": 0,
      "byteOffset": 19056,
      "componentType": 5125,
      "count": 9084,
      "type": "SCALAR"
    },
    {
      "bufferView": 2,
      "byteOffset": 101856,
      "componentType": 5126,
      "count": 5331,
      "max": [
        0.5975419878959656,
        0.6426330208778381,
        2.369668960571289
      ],
      "min": [
        -0.7947559952735901,
        -0.6426330208778381,
        0.14287999272346497
      ],
      "type": "VEC3"
    },
    {
      "bufferView": 2,
      "byteOffset": 165828,
      "componentType": 5126,
      "count": 5331,
      "max": [
        0.9999988079071045,
        0.9999089241027832,
        0.9999972581863403
      ],
      "min": [
        -0.9999990463256836,
        -0.9998992681503296,
        -0.999997615814209
      ],
      "type": "VEC3"
    },
    {
      "bufferView": 1,
      "byteOffset": 33952,
      "componentType": 5126,
      "count": 5331,
      "max": [
        1.0,
        1.0
      ],
      "min": [
        0.0,
        0.0
      ],
      "type": "VEC2"
    },
    {
      "bufferView": 0,
      "byteOffset": 55392,
      "componentType": 5125,
      "count": 18666,
      "type": "SCALAR"
    }
  ],
  "asset": {
    "extras": {
      "author": "najeeebs (https://sketchfab.com/najeeebs)",
      "license": "CC-BY-4.0 (http://creativecommons.org/licenses/by/4.0/)",
      "source": "https://sketchfab.com/3d-models/chair-table-class-f5085b40ff2d478da7afb9d3fc103d5d",
      "title": "Chair Table Class"
    },
    "generator": "Sketchfab-12.67.0",
    "version": "2.0"
  },
  "bufferViews": [
    {
      "buffer": 0,
      "byteLength": 130056,
      "name": "floatBufferViews",
      "target": 34963
    },
    {
      "buffer": 0,
      "byteLength": 76600,
      "byteOffset": 130056,
      "byteStride": 8,
      "name": "floatBufferViews",
      "target": 34962
    },
    {
      "buffer": 0,
      "byteLength": 229800,
      "byteOffset": 206656,
      "byteStride": 12,
      "name": "floatBufferViews",
      "target": 34962
    }
  ],
  "buffers": [
    {
      "byteLength": 436456,
      "uri": "scene.bin"
    }
  ],
  "extensionsUsed": [
    "KHR_materials_clearcoat"
  ],
  "images": [
    {
      "uri": "textures/Material.001_baseColor.png"
    },
    {
      "uri": "textures/Material.003_baseColor.jpeg"
    },
    {
      "uri": "textures/plastik_baseColor.png"
    }
  ],
  "materials": [
    {
      "doubleSided": true,
      "name": "Material.001",
      "pbrMetallicRoughness": {
        "baseColorTexture": {
          "index": 0
        },
        "metallicFactor": 0.0,
        "roughnessFactor": 0.8585786437626906
      }
    },
    {
      "doubleSided": true,
      "name": "Material.003",
      "pbrMetallicRoughness": {
        "baseColorTexture": {
          "index": 1
        },
        "metallicFactor": 0.0,
        "roughnessFactor": 0.7920840526451218
      }
    },
    {
      "doubleSided": true,
      "extensions": {
        "KHR_materials_clearcoat": {
          "clearcoatFactor": 1.0,
          "clearcoatRoughnessFactor": 0.0
        }
      },
      "name": "plastik",
      "pbrMetallicRoughness": {
        "baseColorTexture": {
          "index": 2
        },
        "metallicFactor": 0.0,
        "roughnessFactor": 0.8063508326896291
      }
    },
    {
      "doubleSided": true,
      "name": "plastik.001",
      "pbrMetallicRoughness": {
        "baseColorFactor": [
          0.8,
          0.8,
          0.8,
          1.0
        ],
        "metallicFactor": 0.0,
        "roughnessFactor": 0.7880318375580224
      }
    }
  ],
  "meshes": [
    {
      "name": "Object_0",
      "primitives": [
        {
          "attributes": {
            "NORMAL": 1,
            "POSITION": 0,
            "TEXCOORD_0": 2
          },
          "indices": 3,
          "material": 0,
          "mode": 4
        }
      ]
    },
    {
      "name": "Object_1",
      "primitives": [
        {
          "attributes": {
            "NORMAL": 5,
            "POSITION": 4,
            "TEXCOORD_0": 6
          },
          "indices": 7,
          "material": 3,
          "mode": 4
        }
      ]
    },
    {
      "name": "Object_2",
      "primitives": [
        {
          "attributes": {
            "NORMAL": 9,
            "POSITION": 8,
            "TEXCOORD_0": 10
          },
          "indices": 11,
          "material": 1,
          "mode": 4
        }
      ]
    },
    {
      "name": "Object_3",
      "primitives": [
        {
          "attributes": {
            "NORMAL": 13,
            "POSITION": 12,
            "TEXCOORD_0": 14
          },
          "indices": 15,
          "material": 2,
          "mode": 4
        }
      ]
    }
  ],
  "nodes": [
    {
      "children": [
        1
      ],
      "matrix": [
        1.0,
        0.0,
        0.0,
        0.0,
        0.0,
        0.006265251431614383,
        -0.9999803900718689,
        0.0,
        0.0,
        0.9999803900718689,
        0.006265251431614383,
        0.0,
        0.0,
        2.5276676751675014e-05,
        -0.008068649098277092,
        1.0
      ],
      "name": "Sketchfab_model"
    },
    {
      "children": [
        2,
        3,
        4,
        5
      ],
      "name": "kursi.obj.cleaner.materialmerger.gles"
    },
    {
      "mesh": 0,
      "name": "Object_2"
    },
    {
      "mesh": 1,
      "name": "Object_3"
    },
    {
      "mesh": 2,
      "name": "Object_4"
    },
    {
      "mesh": 3,
      "name": "Object_5"
    }
  ],
  "samplers": [
    {
      "magFilter": 9729,
      "minFilter": 9987,
      "wrapS": 10497,
      "wrapT": 10497
    }
  ],
  "scene": 0,
  "scenes": [
    {
      "name": "Sketchfab_Scene",
      "nodes": [
        0
      ]
    }
  ],
  "textures": [
    {
      "sampler": 0,
      "source": 0
    },
    {
      "sampler": 0,
      "source": 1
    },
    {
      "sampler": 0,
      "source": 2
    }
  ]
}
